PathFileType	4	(X/Y/Z)	Run_300 01
DataRate	CameraRate	NumFrames	NumMarkers	Units	OrigDataRate	OrigDataStartFrame	OrigNumFrames
120	120	7	42	mm	120	185	128
Frame#	Time	LASI			LPSI			RPSI			RTH1			RTH2			RTH3			LTH1			LTH2			LTH3			RTB1			RTB2			RTB3			LTB1			LTB2			RCAL			RTOE			RMT5			LCAL			LMT5			LACR			RACR			CLAV			C7			RUA1			RUA2			RUA3			RLEL			RMEL			LUA1			LUA2			LUA3			LLEL			LMEL			RFAsuperior			RFAradius			RFAulna			LFAsuperior			LFAradius			LFAulna			LTB3			LTOE			RASI			
		X1	Y1	Z1	X2	Y2	Z2	X3	Y3	Z3	X4	Y4	Z4	X5	Y5	Z5	X6	Y6	Z6	X7	Y7	Z7	X8	Y8	Z8	X9	Y9	Z9	X10	Y10	Z10	X11	Y11	Z11	X12	Y12	Z12	X13	Y13	Z13	X14	Y14	Z14	X15	Y15	Z15	X16	Y16	Z16	X17	Y17	Z17	X18	Y18	Z18	X19	Y19	Z19	X20	Y20	Z20	X21	Y21	Z21	X22	Y22	Z22	X23	Y23	Z23	X24	Y24	Z24	X25	Y25	Z25	X26	Y26	Z26	X27	Y27	Z27	X28	Y28	Z28	X29	Y29	Z29	X30	Y30	Z30	X31	Y31	Z31	X32	Y32	Z32	X33	Y33	Z33	X34	Y34	Z34	X35	Y35	Z35	X36	Y36	Z36	X37	Y37	Z37	X38	Y38	Z38	X39	Y39	Z39	X40	Y40	Z40	X41	Y41	Z41	X42	Y42	Z42	

182	1.675	770.2358410000001	977.334567	-485.998205	591.268242	1003.2601	-422.711923	580.50695	1010.13208	-336.988586	705.359971	807.223244	-201.697247	770.840018	689.563217	-234.577564	689.785824	561.7890169999999	-240.855062	766.401435	839.562871	-527.878168	872.361227	771.687418	-513.243881	875.9753459999999	626.474919	-515.919906	697.44621	349.977395	-319.370325	638.1020109999999	302.145068	-266.810267	598.760682	200.791751	-343.582984	850.3684490000001	444.659943	-436.368417	740.764823	431.276924	-496.84367	428.978545	111.05578	-345.912428	644.018325	66.22923400000001	-355.023034	612.233005	62.697393	-264.048752	506.814734	435.156054	-446.055916	571.555327	242.601377	-498.185202	743.470002	1433.59769	-538.516621	750.315114	1413.001292	-159.933388	850.191012	1381.066687	-326.630737	722.0762109999999	1484.174733	-349.421787	726.034172	1305.882722	-99.063227	747.022398	1241.105254	-91.906569	647.914164	1222.955072	-60.044843	686.22292	1150.359475	-11.026736	642.381219	1109.989855	-77.515401	687.457908	1382.466614	-591.1708180000001	608.69996	1344.733663	-567.316997	638.38384	1312.299161	-633.463476	573.179572	1229.653348	-676.9244200000001	520.859403	1203.398528	-608.5871529999999	768.49787	1145.743956	-35.562465	908.497601	1142.313562	-127.737015	892.570096	1076.973742	-110.488728	639.562018	1199.697605	-662.0667	762.652348	1138.215049	-551.38776	742.900107	1083.253195	-585.3330130000001	666.6829729999999	388.162149	-425.763878	597.794542	242.305253	-407.916747	741.082574	989.452627	-231.442705	
183	1.683333	771.016653	984.175018	-484.00519	592.303255	1009.289408	-422.191469	582.56825	1015.989495	-336.192292	700.500074	810.988967	-202.2077	760.223789	691.034043	-234.934682	672.987022	566.525499	-241.031148	769.108064	847.30603	-527.637006	875.907413	782.051567	-512.595811	882.593575	636.503102	-514.032796	675.441138	353.712489	-317.934342	614.989358	306.660031	-265.888196	576.148989	204.732163	-341.917502	864.872428	449.877134	-435.366106	756.86988	428.937978	-494.872528	405.690228	116.019284	-344.677133	620.459531	67.942291	-357.093613	587.077354	62.737122	-264.179998	522.190474	415.922881	-444.990929	601.756651	228.391922	-495.963183	739.747126	1440.48641	-538.647347	753.67529	1419.234892	-161.073108	850.572514	1387.928144	-329.392661	721.716709	1489.899549	-349.593526	732.462306	1310.939656	-100.742715	753.987739	1246.11224	-95.698173	656.364976	1227.428548	-59.174752	696.14026	1154.505685	-13.874584	649.988151	1114.553412	-79.471412	683.142621	1390.223162	-590.766282	604.81448	1353.159273	-566.205416	633.346235	1320.386495	-632.835781	566.962088	1238.364817	-675.512146	515.248938	1212.614105	-606.239	777.420016	1152.594987	-41.257537	913.490636	1153.267451	-138.436893	899.8218900000001	1087.280601	-121.909423	633.581187	1209.049551	-661.3986640000001	757.696066	1148.040873	-551.654011	738.0963829999999	1092.949355	-585.185987	685.9967349999999	380.793726	-424.506965	628.470328	230.798833	-405.790295	742.691749	994.0509060000001	-231.421301	
184	1.691667	771.878332	991.768731	-482.034761	593.581831	1015.548653	-421.392865	584.975068	1022.146632	-335.00535	695.933102	815.366177	-202.76009	749.6491600000001	693.463431	-235.677104	656.3791	572.506003	-241.484733	772.141734	855.41079	-527.2936549999999	879.426507	792.217073	-511.636051	888.140042	645.980585	-512.285792	653.604598	359.087807	-316.855888	592.553752	312.565849	-264.969815	554.080755	210.043227	-340.006445	878.478125	454.892683	-433.711579	772.360812	426.069166	-492.866528	383.367982	122.623547	-343.114646	596.858412	68.872608	-358.305593	561.930918	62.80717	-264.541625	538.566366	395.376103	-442.712383	632.232673	214.365263	-493.890384	736.233831	1447.64196	-538.70136	756.969009	1426.12055	-162.386316	850.887624	1395.316412	-332.162006	721.2919920000001	1496.01412	-349.896696	738.72331	1316.794518	-102.473904	760.604808	1251.884385	-99.753803	664.7176480000001	1232.883753	-58.325475	705.604505	1159.619945	-16.656196	656.943122	1120.073406	-81.093363	679.1189859999999	1398.327863	-590.3335080000001	601.211911	1361.795678	-565.235956	628.818181	1328.720626	-632.372491	561.51832	1247.232282	-674.6131789999999	510.233454	1221.956917	-604.391575	785.715975	1160.052229	-46.834246	917.52705	1164.587676	-149.121059	905.848797	1098.180765	-133.556859	628.254369	1218.513254	-660.7460589999999	753.282383	1158.171021	-551.972222	733.79914	1102.942241	-584.878141	705.117103	372.70657	-423.135529	660.2138220000001	219.071764	-404.14437	744.926397	999.048141	-231.557229	
185	1.7	772.886898	999.722394	-480.418167	595.143769	1022.006923	-420.438212	587.506265	1028.470805	-333.52271	691.814971	820.302108	-203.195154	739.396644	696.772776	-236.826364	640.310665	579.651311	-241.926551	775.4853440000001	863.948079	-526.9405369999999	882.790361	801.955417	-510.332518	892.797014	654.979012	-510.694791	632.133097	365.859804	-315.919538	570.914969	319.773872	-263.756363	532.671431	216.667454	-337.873049	891.018367	459.401847	-431.843671	787.198973	422.625464	-490.85547	362.243615	130.832818	-341.303316	573.078353	68.853033	-358.51841	536.87101	62.923736	-265.057759	556.199222	373.761622	-439.282371	662.978961	200.786214	-492.258381	732.930802	1454.857708	-538.711133	760.117157	1433.481323	-163.812422	851.088618	1403.069243	-334.936665	720.847258	1502.379281	-350.277317	744.706476	1323.333054	-104.16561	766.746813	1258.276223	-103.886569	672.84334	1239.110795	-57.476683	714.549018	1165.478016	-19.312986	663.287974	1126.350481	-82.30739	675.4179820000001	1406.571187	-589.922643	597.918527	1370.479025	-564.431481	624.775625	1337.094656	-632.093566	556.721243	1255.973501	-674.145314	505.757381	1231.186364	-602.902996	793.3383229999999	1167.8664	-52.264962	920.579507	1176.019656	-159.636144	910.670284	1109.389861	-145.129288	623.453991	1227.87482	-660.127087	749.422074	1168.398443	-552.454851	729.973807	1113.013146	-584.472533	724.104916	364.013174	-421.454486	692.531553	207.478379	-403.002656	747.584921	1004.186883	-231.787662	
186	1.708333	774.039442	1007.654132	-479.247773	597.025997	1028.642168	-419.432209	590.139727	1034.790667	-331.904002	688.349111	825.634215	-203.412779	729.7466020000001	700.7070649999999	-238.195455	624.978733	587.867351	-242.079213	779.119477	872.9008219999999	-526.624442	885.905876	811.075316	-508.693545	896.638114	663.486907	-509.164743	611.30956	373.764139	-314.661394	550.030073	328.195341	-261.873379	512.176647	224.335496	-335.409648	902.441927	463.131846	-430.139783	801.3762400000001	418.540876	-488.818241	342.566488	140.552025	-339.231645	549.284258	68.15150199999999	-358.093504	512.106738	63.124842	-265.565437	575.187723	351.409403	-434.86632	694.077566	187.920359	-491.177598	729.831335	1461.988531	-538.704713	763.1208329999999	1441.104738	-165.304912	851.134717	1411.00866	-337.698556	720.411014	1508.844113	-350.696729	750.378576	1330.418589	-105.714081	772.384968	1265.155103	-107.831634	680.642173	1245.921507	-56.608389	722.97105	1171.902888	-21.752716	669.108467	1133.216259	-83.060586	672.075659	1414.791789	-589.615732	594.964244	1379.071614	-563.832162	621.20183	1345.353699	-631.9848950000001	552.450963	1264.427853	-673.917267	501.727686	1240.164865	-601.6596029999999	800.3163050000001	1175.925109	-57.460454	922.658013	1187.354076	-169.838796	914.353745	1120.620571	-156.278013	619.109299	1237.020417	-659.601919	746.055663	1178.503974	-553.042205	726.657873	1122.994047	-584.122088	743.191672	354.876189	-419.365435	725.083344	196.32002	-402.32833	750.482761	1009.187063	-232.024717	
187	1.716667	775.264395	1015.272949	-478.619257	599.227522	1035.39315	-418.43188	592.927725	1040.972277	-330.313819	685.624683	831.123633	-203.385847	720.84442	704.909082	-239.46066	610.452052	597.000332	-241.770769	782.9419360000001	881.993209	-526.309339	888.769787	819.464309	-506.823155	899.551215	671.284409	-507.540707	591.582295	382.655078	-312.568608	529.913077	337.801685	-259.07302	493.049749	232.740413	-332.38884	912.869917	465.919783	-428.758309	814.964445	413.768654	-486.757204	324.600965	151.708324	-336.836116	525.820599	67.27576999999999	-357.422703	487.927609	63.495456	-265.848291	595.467716	328.682819	-429.761493	725.570321	175.944651	-490.427893	726.9499479999999	1468.936428	-538.715957	766.028227	1448.765771	-166.838921	850.9906559999999	1418.951363	-340.419429	719.990304	1515.255438	-351.142494	755.74722	1337.869569	-107.034614	777.567222	1272.372098	-111.302318	688.028238	1253.127203	-55.718892	730.872598	1178.731486	-23.853226	674.4536869999999	1140.507703	-83.33796	669.0885019999999	1422.863076	-589.4729579999999	592.331491	1387.441753	-563.467959	618.055854	1353.376865	-632.013763	548.626937	1272.542573	-673.770733	498.074761	1248.802501	-600.619308	806.691137	1184.147841	-62.269245	923.787243	1198.411536	-179.596413	916.9766530000001	1131.621942	-166.715227	615.209298	1245.845879	-659.276956	743.125626	1188.316363	-553.670821	723.892285	1132.757219	-583.976278	762.5631509999999	345.484157	-416.926181	757.738731	185.826132	-402.023209	753.512828	1013.875922	-232.208692	
188	1.725	776.480756	1022.399281	-478.650881	601.681752	1042.14548	-417.467326	595.870352	1046.970433	-328.881001	683.486312	836.551539	-203.126251	712.602164	709.102559	-240.265383	596.788224	606.7733950000001	-240.960672	786.75287	890.771416	-525.886001	891.406686	827.015608	-504.899267	901.307469	678.012185	-505.707561	573.502052	392.408631	-309.368746	510.800692	348.511911	-255.414405	475.757987	241.647968	-328.637951	922.492545	467.741578	-427.667757	828.105591	408.31868	-484.727632	308.530819	164.24855	-334.087696	503.004994	66.80179800000001	-356.603312	464.578806	64.18957399999999	-265.701918	616.880595	305.909588	-424.403404	757.409466	164.935148	-489.59289	724.330547	1475.616377	-538.7928879999999	768.87794	1456.249068	-168.411218	850.628018	1426.725857	-343.076217	719.5828760000001	1521.46597	-351.62057	760.81215	1345.465043	-108.103313	782.370893	1279.736883	-114.091336	694.920359	1260.52791	-54.814686	738.2266499999999	1185.786739	-25.520851	679.289786	1148.032483	-83.153485	666.406929	1430.65816	-589.492237	589.9511649999999	1395.466083	-563.360939	615.2635320000001	1361.049129	-632.161569	545.209651	1280.293679	-673.679534	494.788502	1256.979659	-599.811702	812.4585039999999	1192.406619	-66.579427	923.989195	1209.030954	-188.795608	918.608591	1142.213247	-176.270515	611.763165	1254.232923	-659.239785	740.622145	1197.745568	-554.388588	721.6795550000001	1142.194761	-584.135166	782.205486	336.027211	-414.309948	790.427962	176.225519	-401.883171	756.647143	1018.253718	-232.362104	
